<svg width="10" height="6" viewBox="0 0 10 6" fill="none" xmlns="http://www.w3.org/2000/svg">
  <path
    d="M5.00446 1.96023C4.9068 2.05137 4.8124 2.14252 4.72126 2.23366C4.63011 2.32481 4.53896 2.4127 4.44782 2.49734C4.1874 2.75124 3.92698 3.00189 3.66657 3.24929C3.40615 3.5032 3.14573 3.75385 2.88532 4.00124C2.6249 4.24864 2.36123 4.49929 2.0943 4.7532C1.83388 5.00059 1.57347 5.25124 1.31305 5.50515C1.18284 5.62885 1.0445 5.70697 0.898013 5.73952C0.751528 5.77208 0.600161 5.7558 0.443911 5.6907C0.222557 5.59304 0.082583 5.43191 0.0239892 5.2073C-0.0346045 4.98269 0.0142237 4.77924 0.170474 4.59694C0.190005 4.57741 0.207908 4.55788 0.224185 4.53835C0.240461 4.51882 0.258364 4.50254 0.277896 4.48952C0.622947 4.15749 0.968 3.82546 1.31305 3.49343C1.6581 3.1614 2.00478 2.82937 2.35309 2.49734C2.7014 2.1653 3.04808 1.83327 3.39313 1.50124C3.73818 1.16921 4.08323 0.83718 4.42829 0.505149C4.56501 0.36843 4.70986 0.285422 4.86286 0.256125C5.01585 0.226828 5.17047 0.251242 5.32672 0.329367C5.3723 0.348899 5.41461 0.37494 5.45368 0.407492C5.49274 0.440045 5.52855 0.472597 5.5611 0.505149C5.91266 0.83718 6.26097 1.16921 6.60602 1.50124C6.95758 1.83978 7.30752 2.17507 7.65583 2.5071C8.00413 2.83913 8.35081 3.17442 8.69586 3.51296C9.04743 3.84499 9.39573 4.18028 9.74079 4.51882C9.89704 4.66205 9.97842 4.83132 9.98493 5.02663C9.99144 5.22195 9.92308 5.39122 9.77985 5.53445C9.63011 5.68419 9.4527 5.75743 9.24762 5.75417C9.04254 5.75092 8.85862 5.67116 8.69586 5.51491C8.39638 5.23497 8.10016 4.95176 7.80719 4.6653C7.50771 4.37885 7.20986 4.09239 6.91364 3.80593C6.61741 3.51947 6.31956 3.23627 6.02008 2.95632C5.72711 2.66986 5.43089 2.3834 5.13141 2.09695C5.11188 2.07741 5.09235 2.05626 5.07282 2.03347C5.05329 2.01068 5.0305 1.98627 5.00446 1.96023Z"
    fill="currentColor" />
</svg>