<svg width="21" height="20" viewBox="0 0 21 20" fill="none" xmlns="http://www.w3.org/2000/svg">
  <g clip-path="url(#clip0_149_333)">
    <path
      d="M1.21712 1.09315C1.04415 1.09315 0.878265 1.16187 0.755959 1.28417C0.633652 1.40648 0.564941 1.57236 0.564941 1.74533C0.564941 1.9183 0.633652 2.08418 0.755959 2.20649C0.878265 2.32879 1.04415 2.3975 1.21712 2.3975H3.81885C4.89798 5.06968 5.96146 7.74794 7.0319 10.4262L6.04755 12.7975C6.00704 12.897 5.99126 13.0048 6.00156 13.1117C6.01186 13.2187 6.04793 13.3215 6.10668 13.4114C6.22581 13.5897 6.43712 13.7019 6.6519 13.701H17.5215C17.6939 13.6967 17.8582 13.6269 17.981 13.5057C18.1038 13.3845 18.1758 13.2212 18.1823 13.0488C18.1758 12.8764 18.1038 12.7131 17.981 12.5919C17.8582 12.4708 17.6939 12.4009 17.5215 12.3966H7.63016L8.19364 11.0514L18.6632 10.2158C18.8004 10.2022 18.93 10.1467 19.0344 10.0567C19.1389 9.96679 19.213 9.8468 19.2467 9.71316L20.551 4.06098C20.6362 3.68011 20.3032 3.26446 19.9128 3.2662H5.5719L4.86494 1.50098C4.81461 1.38165 4.7307 1.2795 4.62341 1.20695C4.51613 1.1344 4.39009 1.09457 4.26059 1.09229L1.21712 1.09315ZM6.09538 4.57142H19.0902L18.078 8.96011L8.16668 9.74794L6.09538 4.57142ZM8.82581 14.1366C8.25003 14.1392 7.69855 14.369 7.2914 14.7761C6.88426 15.1833 6.65442 15.7348 6.6519 16.3105C6.6519 17.5036 7.63277 18.4845 8.82581 18.4845C10.0189 18.4845 10.9997 17.5036 10.9997 16.3105C10.9997 15.1175 10.0189 14.1366 8.82581 14.1366ZM15.3476 14.1366C14.7718 14.1392 14.2203 14.369 13.8131 14.7761C13.406 15.1833 13.1762 15.7348 13.1736 16.3105C13.1736 17.5036 14.1545 18.4845 15.3476 18.4845C16.5406 18.4845 17.5215 17.5036 17.5215 16.3105C17.5215 15.1175 16.5406 14.1366 15.3476 14.1366ZM8.82581 15.441C8.94033 15.4398 9.05392 15.4615 9.15995 15.5048C9.26598 15.5481 9.3623 15.6121 9.44328 15.6931C9.52426 15.7741 9.58827 15.8704 9.63155 15.9764C9.67484 16.0824 9.69654 16.196 9.69538 16.3105C9.69654 16.4251 9.67484 16.5387 9.63155 16.6447C9.58827 16.7507 9.52426 16.847 9.44328 16.928C9.3623 17.009 9.26598 17.073 9.15995 17.1163C9.05392 17.1596 8.94033 17.1813 8.82581 17.1801C8.7113 17.1813 8.5977 17.1596 8.49167 17.1163C8.38565 17.073 8.28932 17.009 8.20834 16.928C8.12737 16.847 8.06336 16.7507 8.02007 16.6447C7.97678 16.5387 7.95508 16.4251 7.95625 16.3105C7.95625 15.8227 8.33885 15.441 8.82581 15.441ZM15.3476 15.441C15.4621 15.4398 15.5757 15.4615 15.6817 15.5048C15.7877 15.5481 15.884 15.6121 15.965 15.6931C16.046 15.7741 16.11 15.8704 16.1533 15.9764C16.1966 16.0824 16.2183 16.196 16.2171 16.3105C16.2183 16.4251 16.1966 16.5387 16.1533 16.6447C16.11 16.7507 16.046 16.847 15.965 16.928C15.884 17.009 15.7877 17.073 15.6817 17.1163C15.5757 17.1596 15.4621 17.1813 15.3476 17.1801C15.233 17.1813 15.1194 17.1596 15.0134 17.1163C14.9074 17.073 14.8111 17.009 14.7301 16.928C14.6491 16.847 14.5851 16.7507 14.5418 16.6447C14.4985 16.5387 14.4768 16.4251 14.478 16.3105C14.478 15.8227 14.8597 15.441 15.3476 15.441Z"
      fill="black" />
  </g>
  <defs>
    <clipPath id="clip0_149_333">
      <rect width="20" height="20" fill="white" transform="translate(0.564941)" />
    </clipPath>
  </defs>
</svg>