<svg width="21" height="20" viewBox="0 0 21 20" fill="none" xmlns="http://www.w3.org/2000/svg">
  <g clip-path="url(#clip0_149_325)">
    <path
      d="M10.6601 12.4354C11.8657 12.4354 13.0441 12.0779 14.0465 11.4081C15.0488 10.7384 15.8301 9.78642 16.2914 8.67266C16.7527 7.5589 16.8734 6.33335 16.6383 5.15099C16.4031 3.96863 15.8226 2.88256 14.9701 2.03013C14.1177 1.1777 13.0316 0.59718 11.8493 0.361994C10.6669 0.126808 9.44135 0.247514 8.32759 0.708848C7.21383 1.17018 6.26188 1.95142 5.59213 2.95378C4.92237 3.95614 4.56489 5.13459 4.56489 6.34011C4.56666 7.95613 5.2094 9.50545 6.3521 10.6481C7.49479 11.7908 9.04412 12.4336 10.6601 12.4354ZM10.6601 1.76869C11.8726 1.76869 13.0353 2.25032 13.8926 3.10763C14.7499 3.96494 15.2316 5.1277 15.2316 6.34011C15.2316 7.55253 14.7499 8.71529 13.8926 9.5726C13.0353 10.4299 11.8726 10.9115 10.6601 10.9115C9.44772 10.9115 8.28495 10.4299 7.42764 9.5726C6.57034 8.71529 6.0887 7.55253 6.0887 6.34011C6.0887 5.1277 6.57034 3.96494 7.42764 3.10763C8.28495 2.25032 9.44772 1.76869 10.6601 1.76869ZM15.2316 13.1973H6.0887C4.67468 13.1988 3.31901 13.7612 2.31914 14.761C1.31927 15.7609 0.756884 17.1166 0.755371 18.5306C0.755371 18.7327 0.835643 18.9265 0.978528 19.0693C1.12141 19.2122 1.31521 19.2925 1.51728 19.2925H19.803C20.0051 19.2925 20.1989 19.2122 20.3417 19.0693C20.4846 18.9265 20.5649 18.7327 20.5649 18.5306C20.5634 17.1166 20.001 15.7609 19.0011 14.761C18.0013 13.7612 16.6456 13.1988 15.2316 13.1973ZM2.35537 17.7687C2.53184 16.9086 2.99962 16.1358 3.67975 15.5806C4.35988 15.0254 5.21073 14.7218 6.0887 14.7211H15.2316C16.1093 14.7224 16.9597 15.0262 17.6396 15.5813C18.3194 16.1364 18.7872 16.909 18.9639 17.7687H2.35442H2.35537Z"
      fill="black" />
  </g>
  <defs>
    <clipPath id="clip0_149_325">
      <rect width="20" height="20" fill="white" transform="translate(0.564941)" />
    </clipPath>
  </defs>
</svg>