<svg width="21" height="20" viewBox="0 0 21 20" fill="none" xmlns="http://www.w3.org/2000/svg">
  <g clip-path="url(#clip0_149_317)">
    <path fill-rule="evenodd" clip-rule="evenodd"
      d="M14.6639 12.7839L19.5191 17.6382C19.6093 17.7283 19.6808 17.8353 19.7294 17.9531C19.778 18.0709 19.8029 18.1972 19.8025 18.3247C19.8022 18.4522 19.7766 18.5783 19.7273 18.6958C19.678 18.8134 19.606 18.92 19.5153 19.0096C19.333 19.1903 19.0869 19.2919 18.8302 19.2924C18.5735 19.293 18.327 19.1924 18.1439 19.0125L13.2896 14.1582C11.727 15.3645 9.76392 15.9312 7.79879 15.7432C5.83366 15.5553 4.01362 14.6268 2.70795 13.1462C1.40229 11.6655 0.708789 9.74362 0.76817 7.77042C0.827551 5.79721 1.63536 3.92049 3.0277 2.52104C4.42524 1.1203 6.30441 0.305317 8.28209 0.242236C10.2598 0.179155 12.187 0.872728 13.671 2.18155C15.155 3.49038 16.0839 5.31591 16.2684 7.28598C16.4529 9.25604 15.8791 11.2223 14.6639 12.7839ZM12.6448 12.1391C13.199 11.6008 13.6407 10.9576 13.9441 10.2471C14.2475 9.53653 14.4066 8.77275 14.4123 8.00015C14.4179 7.22755 14.2699 6.46153 13.9768 5.74665C13.6838 5.03176 13.2515 4.38225 12.7052 3.8359C12.1589 3.28954 11.5095 2.85722 10.7946 2.56409C10.0798 2.27096 9.31378 2.12285 8.54117 2.12838C7.76857 2.13391 7.00478 2.29296 6.29419 2.5963C5.5836 2.89964 4.9404 3.3412 4.40199 3.89532C3.30879 4.98865 2.69469 6.47146 2.69478 8.01757C2.69487 9.56367 3.30914 11.0464 4.40246 12.1396C5.49579 13.2328 6.9786 13.8469 8.5247 13.8468C10.0708 13.8467 11.5536 13.2325 12.6467 12.1391H12.6448Z"
      fill="black" />
  </g>
  <defs>
    <clipPath id="clip0_149_317">
      <rect width="20" height="20" fill="white" transform="translate(0.564941)" />
    </clipPath>
  </defs>
</svg>