<svg xmlns='http://www.w3.org/2000/svg' width='28' height='35' viewBox='0 0 28 35' fill='none'>
  <g clip-path="url(#clip0_2005_8812)">
      <path d="M13.7632 33.7134C4.5045 22.7902 3.07758 18.9665 2.8602 18.0385C2.49532 16.8933 2.31055 15.6999 2.31055 14.4942C2.31055 8.05103 7.554 2.81055 14.0008 2.81055C20.4476 2.81055 25.691 8.05103 25.691 14.4926C25.691 16.3067 25.2842 18.0478 24.4815 19.6679C23.5048 21.7039 14.625 33.2137 14.2477 33.7025L14.0132 34.0067L13.7648 33.7134H13.7632Z" fill="black"/>
      <path d="M14.0008 3.12073C20.2845 3.12073 25.3805 8.21223 25.3805 14.494C25.3805 16.3034 24.955 18.0135 24.2035 19.5312C23.2284 21.5656 14.0008 33.513 14.0008 33.513C4.56195 22.3788 3.31979 18.6606 3.15986 17.9561C2.81051 16.8636 2.62108 15.7013 2.62108 14.494C2.62108 8.21223 7.71547 3.12073 14.0008 3.12073ZM14.0008 2.5C7.38319 2.5 2 7.88015 2 14.494C2 15.7277 2.18943 16.949 2.56052 18.1221C2.79187 19.092 4.26693 22.9917 13.5257 33.915L14.0225 34.5L14.4914 33.8917C14.8703 33.4013 23.761 21.8806 24.7609 19.8012C25.5839 18.1392 26 16.3531 26 14.4924C26 7.88015 20.6168 2.5 14.0008 2.5Z" fill="white"/>
      <path d="M17.3668 12.2885C17.3063 13.1095 17.1463 13.9179 17.1603 14.7482C17.1727 15.4573 17.3979 15.9989 18.0329 16.3419C18.0143 16.39 18.0096 16.4459 17.9801 16.4676C16.297 17.6625 16.2271 19.3664 16.4864 21.1758C16.6355 22.2202 16.8234 23.2568 16.5858 24.3198C16.0641 26.6506 13.0798 27.7896 11.2787 26.3294C10.5551 25.7428 10.212 24.7543 10.4666 23.9923C10.7617 23.1125 11.5923 22.47 12.4836 22.4483C12.8795 22.439 13.3391 22.456 13.3935 22.9433C13.4463 23.4244 12.9773 23.3437 12.6684 23.4197C12.0706 23.5656 11.6094 23.8822 11.597 24.5556C11.5861 25.2043 12.0271 25.4992 12.5954 25.6559C13.8655 26.005 15.0657 25.0786 15.0564 23.7596C15.0533 23.263 14.9027 22.8036 14.7661 22.3319C14.2366 20.5054 13.659 18.682 13.9059 16.7345C14.0813 15.3518 14.6092 14.1212 15.4197 12.9884C16.0734 12.0759 16.9243 11.2814 17.2131 10.1377C17.5314 10.1346 17.4134 10.386 17.4118 10.5257C17.4025 11.1123 17.4802 11.702 17.3653 12.287L17.3668 12.2885Z" fill="white"/>
      <path d="M10.9123 8.11116C12.0241 8.11736 12.4402 7.87683 12.7383 7.05747C13.1374 5.96034 13.6637 5.62204 14.7506 5.76481C15.7754 5.89982 16.502 6.64624 16.5843 7.64096C16.6542 8.4867 16.3343 9.15863 15.6465 9.63038C14.9012 10.1409 14.0798 10.1782 13.3175 9.72039C12.5147 9.23933 11.6763 8.99879 10.754 9.02362C10.3052 9.03604 9.94035 8.90258 9.9683 8.41066C10.0009 7.85045 10.4838 8.19651 10.7571 8.11271C10.8037 8.09874 10.8595 8.11116 10.9108 8.11116H10.9123Z" fill="white"/>
      <path d="M15.5286 11.1079C13.6033 13.2836 12.5537 15.7447 12.9294 18.7428C10.2805 16.5781 11.5304 12.8925 15.5286 11.1079Z" fill="white"/>
  </g>
  <defs>
      <clipPath id="clip0_2005_8812">
          <rect width="28" height="34" fill="white" transform="translate(0 0.5)"/>
      </clipPath>
  </defs>
</svg>